<?xml version="1.0" encoding="UTF-8" standalone="no"?>
<svg
   xmlns:dc="http://purl.org/dc/elements/1.1/"
   xmlns:cc="http://creativecommons.org/ns#"
   xmlns:rdf="http://www.w3.org/1999/02/22-rdf-syntax-ns#"
   xmlns:svg="http://www.w3.org/2000/svg"
   xmlns="http://www.w3.org/2000/svg"
   xmlns:sodipodi="http://sodipodi.sourceforge.net/DTD/sodipodi-0.dtd"
   xmlns:inkscape="http://www.inkscape.org/namespaces/inkscape"
   version="1.1"
   x="0px"
   y="0px"
   viewBox="0 0 115.23 115.231"
   enable-background="new 0 0 100 100"
   xml:space="preserve"
   id="svg12"
   sodipodi:docname="noun_386232_cc.svg"
   width="115.23"
   height="115.231"
   inkscape:version="0.92.1 r15371"><metadata
     id="metadata18"><rdf:RDF><cc:Work
         rdf:about=""><dc:format>image/svg+xml</dc:format><dc:type
           rdf:resource="http://purl.org/dc/dcmitype/StillImage" /><dc:title></dc:title></cc:Work></rdf:RDF></metadata><defs
     id="defs16" /><sodipodi:namedview
     pagecolor="#ffffff"
     bordercolor="#666666"
     borderopacity="1"
     objecttolerance="10"
     gridtolerance="10"
     guidetolerance="10"
     inkscape:pageopacity="0"
     inkscape:pageshadow="2"
     inkscape:window-width="640"
     inkscape:window-height="480"
     id="namedview14"
     showgrid="false"
     fit-margin-top="10"
     fit-margin-left="10"
     fit-margin-right="10"
     fit-margin-bottom="10"
     inkscape:zoom="1.888"
     inkscape:cx="57.615"
     inkscape:cy="45.116"
     inkscape:window-x="0"
     inkscape:window-y="0"
     inkscape:window-maximized="0"
     inkscape:current-layer="svg12" /><g
     id="g6"
     transform="translate(7.615,7.615)"><path
       d="m 47.721,54.223 13.337,7.264 c 0.705,0.381 1.498,0.584 2.295,0.584 1.768,0 3.391,-0.965 4.236,-2.52 1.264,-2.332 0.396,-5.262 -1.936,-6.529 L 54.813,47.138 V 23.965 c 0,-2.655 -2.16,-4.814 -4.815,-4.814 -2.655,0 -4.814,2.159 -4.814,4.814 V 50 c 0.001,1.793 1,3.426 2.537,4.223 z"
       id="path2"
       inkscape:connector-curvature="0"
       style="fill:#000000" /><path
       d="m 50,2.385 c -2.655,0 -4.814,2.159 -4.814,4.814 0,2.655 2.159,4.815 4.814,4.815 20.946,0 37.985,17.04 37.985,37.984 0,20.946 -17.039,37.985 -37.985,37.985 -20.944,0 -37.984,-17.039 -37.984,-37.985 0,-8.485 2.877,-16.757 8.129,-23.448 l 2.286,3.295 c 0.538,0.775 1.447,1.216 2.402,1.143 l 0.123,-0.013 c 0.905,-0.112 1.701,-0.684 2.092,-1.515 L 35.884,10.723 C 36.291,9.861 36.206,8.839 35.663,8.056 35.159,7.33 34.359,6.898 33.523,6.898 c -0.116,0 -0.232,0.009 -0.28,0.018 l -20.65,1.716 c -0.949,0.078 -1.791,0.663 -2.197,1.525 -0.406,0.862 -0.321,1.883 0.222,2.666 l 3.833,5.523 C 6.664,27.095 2.385,38.302 2.385,50 2.385,76.254 23.744,97.616 49.999,97.616 76.253,97.616 97.615,76.255 97.615,50 97.615,23.745 76.254,2.385 50,2.385 Z"
       id="path4"
       inkscape:connector-curvature="0"
       style="fill:#000000" /></g></svg>